<?xml version="1.0" encoding="utf-8"?>
<!-- Generator: Adobe Illustrator 16.0.0, SVG Export Plug-In . SVG Version: 6.00 Build 0)  -->
<!DOCTYPE svg PUBLIC "-//W3C//DTD SVG 1.1//EN" "http://www.w3.org/Graphics/SVG/1.1/DTD/svg11.dtd">
<svg version="1.1" xmlns="http://www.w3.org/2000/svg" xmlns:xlink="http://www.w3.org/1999/xlink" x="0px" y="0px" width="350px"
	 height="111px" viewBox="0 0 350 111" enable-background="new 0 0 350 111" xml:space="preserve">
<g id="Layer_2" display="none">
	<rect x="-5.5" y="-5" display="inline" fill="#2E2E2F" width="362" height="121"/>
</g>
<g id="Layer_1">
	<g>
		<g>
			<path fill="#676767" d="M83.234,55.995l8.625-41.185H21.274l-8.1,38.764C35.974,56.407,59.748,57.596,83.234,55.995z"/>
			<path fill="#4D4C4B" d="M13.174,53.573l-0.932,4.398L4.496,95.037H75.07l8.099-38.727l0.065-0.315
				C59.748,57.596,35.974,56.407,13.174,53.573z"/>
			<path fill="#F7A600" d="M171.678,28.02l4.833-23.094H92.951L82.248,56.069c30.91-2.014,61.327-8.876,88.412-23.207L171.678,28.02
				z"/>
			<path fill="#F39200" d="M82.248,56.069l-0.086,0.402l-10.135,48.455h83.559l15.074-72.063
				C143.575,47.193,113.158,54.055,82.248,56.069z"/>
			<path fill="#E3E3E3" d="M136.547,69.799c-3.814,0-6.911-6.669-6.911-14.881c0-2.314,0.246-4.495,0.686-6.45
				c-3.257,0.857-6.546,1.628-9.835,2.347c-0.139,1.312-0.225,2.679-0.225,4.104c0,8.876,2.946,16.055,6.579,16.055h9.375
				c1.607,0,3.085-1.42,4.232-3.767C139.332,68.835,137.993,69.799,136.547,69.799z"/>
			<path fill="#FFFFFF" d="M136.547,40.057c1.446,0,2.785,0.949,3.9,2.572c-1.146-2.336-2.625-3.755-4.232-3.755h-9.375
				c-3.054,0-5.614,5.073-6.354,11.941c3.289-0.718,6.579-1.49,9.835-2.347C131.447,43.491,133.804,40.057,136.547,40.057z"/>
			<path fill="#FFFFFF" d="M126.84,30.372c2.378,0,4.596,1.57,6.429,4.264c-1.897-3.878-4.329-6.22-6.985-6.22h-15.482
				c-5.915,0-10.725,11.556-10.854,25.923c5.229-0.669,10.425-1.489,15.579-2.496C116.222,39.736,121.011,30.372,126.84,30.372z"/>
			<path fill="#E3E3E3" d="M126.84,79.48c-6.311,0-11.421-11.004-11.421-24.562c0-1.045,0.032-2.063,0.107-3.075
				c-5.154,1.007-10.35,1.826-15.579,2.496c0,0.193-0.011,0.386-0.011,0.579c0,14.64,4.864,26.501,10.864,26.501h15.482
				c2.657,0,5.088-2.336,6.985-6.204C131.436,77.904,129.218,79.48,126.84,79.48z"/>
			<path fill="#FFFFFF" d="M94.783,54.918c0-1.34,0.054-2.646,0.129-3.932H65.073c-0.728,1.21-0.91,2.603-0.91,3.932
				c0,0.595,0.053,1.184,0.15,1.778c10.189-0.081,20.367-0.616,30.471-1.73C94.783,54.955,94.783,54.934,94.783,54.918z"/>
			<path fill="#E3E3E3" d="M64.313,56.696c0.118,0.756,0.354,1.489,0.76,2.164h29.839c-0.075-1.28-0.129-2.561-0.129-3.895
				C84.68,56.081,74.501,56.616,64.313,56.696z"/>
			<path fill="#E3E3E3" d="M37.367,70.973h2.389c-1.318-6.242-1.339-11.288-0.986-14.995c-2.667-0.171-5.324-0.364-7.981-0.589
				C30.896,64.042,33.788,70.973,37.367,70.973z"/>
			<path fill="#FFFFFF" d="M55.163,54.918c0-13.559,5.111-24.546,11.421-24.546c2.378,0,4.585,1.57,6.418,4.264
				c-1.886-3.878-4.318-6.22-6.986-6.22H50.545c-3.525,0-6.654,4.115-8.635,10.458h-4.543c-3.632,0-6.579,7.178-6.579,16.044
				c0,0.166,0,0.321,0,0.471c2.657,0.226,5.314,0.418,7.981,0.589c0.279-2.871,0.783-4.965,1.115-6.074
				c-0.128,1.628-0.204,3.3-0.204,5.014c0,0.375,0.011,0.75,0.021,1.125c5.144,0.311,10.308,0.514,15.493,0.61
				C55.184,56.081,55.163,55.502,55.163,54.918z"/>
			<path fill="#E3E3E3" d="M66.584,79.48c-6.043,0-10.971-10.077-11.39-22.827c-5.185-0.096-10.349-0.299-15.493-0.61
				c0.247,14.11,4.993,25.376,10.843,25.376h15.471c2.668,0,5.1-2.336,6.986-6.204C71.169,77.904,68.962,79.48,66.584,79.48z"/>
		</g>
		<g>
			<g>
				<path fill="#FFFFFF" d="M193.663,40.127l-2.196,10.419h-7.264l5.014-23.662h7.264l-1.564,7.365h9.985
					c0.6,0,1.029-0.133,1.265-0.38c0.235-0.257,0.439-0.761,0.6-1.484l1.382-6.358c0.065-0.322,0.097-0.541,0.097-0.67
					c0-0.354-0.107-0.584-0.311-0.696c-0.204-0.107-0.535-0.172-0.985-0.172h-17.25l1.329-6.299h20.282
					c1.618,0,2.774,0.284,3.482,0.857c0.696,0.574,1.05,1.462,1.05,2.673c0,0.327-0.021,0.648-0.075,0.986
					c-0.043,0.332-0.097,0.702-0.161,1.119l-2.25,10.661c-0.407,1.917-1.114,3.326-2.1,4.253c-0.986,0.927-2.519,1.387-4.586,1.387
					H193.663z"/>
				<path fill="#FFFFFF" d="M220.191,50.546c-1.329,0-2.303-0.241-2.882-0.707c-0.589-0.477-0.89-1.195-0.89-2.164
					c0-0.499,0.086-1.087,0.236-1.773l3.653-17.346c0.343-1.586,0.922-2.738,1.736-3.509c0.804-0.75,2.078-1.135,3.782-1.135h13.253
					c1.339,0,2.304,0.24,2.872,0.707c0.579,0.471,0.867,1.205,0.867,2.207c0,0.257-0.021,0.53-0.053,0.819
					c-0.043,0.29-0.097,0.595-0.14,0.911l-3.664,17.346c-0.332,1.575-0.921,2.743-1.747,3.509c-0.836,0.756-2.079,1.136-3.761,1.136
					H220.191z M236.209,30.64c0.032-0.139,0.043-0.247,0.054-0.359c0.021-0.107,0.033-0.193,0.033-0.268
					c0-0.605-0.472-0.911-1.383-0.911h-7.436c-0.525,0-0.9,0.113-1.125,0.311c-0.215,0.22-0.396,0.622-0.525,1.227l-2.839,13.258
					c-0.043,0.257-0.075,0.429-0.075,0.504c0,0.563,0.375,0.831,1.137,0.831h7.435c0.631,0,1.082-0.107,1.339-0.316
					c0.268-0.204,0.45-0.542,0.558-1.019L236.209,30.64z"/>
				<path fill="#FFFFFF" d="M265.566,50.546l-0.986-19.001l-9.675,19.001h-6.686l-1.028-26.635h6.139l0.429,19.51l9.643-19.51h5.979
					l0.825,19.478l9.085-19.478h5.872l-12.868,26.635H265.566z"/>
				<path fill="#FFFFFF" d="M283.19,50.546l4.136-19.467h6.171l-0.932,4.318h9.783l-0.9,4.253h-9.793l-1.179,5.582h13.575
					l-1.104,5.314H283.19z M287.711,29.102l1.104-5.19h19.757l-1.104,5.19H287.711z"/>
				<path fill="#FFFFFF" d="M324.193,50.546l1.812-8.695c0.021-0.128,0.042-0.241,0.053-0.332c0.021-0.091,0.021-0.182,0.021-0.257
					c0-0.417-0.375-0.631-1.103-0.631h-8.615l-2.089,9.916h-5.978l4.135-19.467h5.978l-1.103,5.143h8.186
					c0.578,0,0.964-0.091,1.157-0.268c0.204-0.182,0.364-0.557,0.492-1.103l0.943-4.329c0.032-0.129,0.054-0.252,0.064-0.354
					c0.011-0.107,0.021-0.204,0.021-0.278c0-0.312-0.097-0.52-0.279-0.633c-0.182-0.102-0.493-0.155-0.943-0.155h-14.131l1.104-5.19
					h16.928c1.361,0,2.347,0.24,2.947,0.729c0.6,0.492,0.9,1.221,0.9,2.228c0,0.23-0.021,0.482-0.054,0.734
					c-0.042,0.273-0.096,0.546-0.139,0.841l-1.221,5.775c-0.29,1.372-0.804,2.33-1.565,2.893c-0.761,0.562-1.618,0.9-2.518,1.007
					c0.825,0.054,1.532,0.241,2.111,0.568s0.868,0.911,0.868,1.752c0,0.128,0,0.268,0,0.412c0,0.15-0.032,0.294-0.075,0.451
					l-1.929,9.246H324.193z"/>
			</g>
			<g>
				<polygon fill="#F7A600" points="199.599,71 187.396,71 188.553,65.648 181.042,65.648 179.467,73.083 199.149,73.083 				"/>
				<polygon fill="#F7A600" points="206.81,56.905 182.864,56.905 181.524,63.253 205.471,63.253 				"/>
				<polygon fill="#F7A600" points="217.32,62.626 211.341,62.626 209.134,73.083 215.113,73.083 				"/>
				<polygon fill="#F7A600" points="232.974,67.86 239.466,67.86 240.57,62.626 221.648,62.626 220.545,67.86 226.995,67.86 
					225.892,73.083 231.87,73.083 				"/>
				<polygon fill="#F7A600" points="268.029,62.626 262.437,62.626 260.252,73.083 265.823,73.083 				"/>
				<polygon fill="#F7A600" points="248.359,71.792 249.099,73.083 256.116,73.083 250.363,62.626 244.738,62.626 242.531,73.083 
					248.081,73.083 				"/>
				<polygon fill="#F39200" points="277.951,69.784 271.78,69.784 271.072,73.083 277.233,73.083 				"/>
				<polygon fill="#F7A600" points="293.015,62.626 273.258,62.626 272.166,67.817 291.912,67.817 				"/>
				<path fill="#F7A600" d="M302.026,72.976c0-0.08,0-0.161,0.021-0.23c0.01-0.086,0.032-0.172,0.053-0.285l0.75-3.497
					c0.097-0.478,0.246-0.804,0.429-0.981c0.193-0.193,0.492-0.284,0.911-0.284h14.132l1.061-5.073h-16.575
					c-1.714,0-3.011,0.381-3.815,1.142c-0.814,0.766-1.393,1.928-1.725,3.503l-1.231,5.812h6.042
					C302.068,73.046,302.026,73.024,302.026,72.976z"/>
				<path fill="#F7A600" d="M328.425,72.976c0-0.08,0.01-0.161,0.021-0.23c0.011-0.086,0.021-0.172,0.054-0.285l0.75-3.497
					c0.097-0.478,0.257-0.804,0.439-0.981c0.182-0.193,0.482-0.284,0.9-0.284h14.121l1.061-5.073h-16.554
					c-1.735,0-3.011,0.381-3.825,1.142c-0.804,0.766-1.393,1.928-1.725,3.503l-1.232,5.812h6.032
					C328.468,73.046,328.425,73.024,328.425,72.976z"/>
				<polygon fill="#F39200" points="183.54,89.262 186.25,76.404 198.442,76.404 199.149,73.083 179.467,73.083 176.028,89.262 				
					"/>
				<polygon fill="#F39200" points="211.685,89.262 215.113,73.083 209.134,73.083 205.707,89.262 				"/>
				<polygon fill="#F39200" points="228.452,89.262 231.87,73.083 225.892,73.083 222.474,89.262 				"/>
				<polygon fill="#F39200" points="244.651,89.262 248.081,73.083 242.531,73.083 239.112,89.262 				"/>
				<polygon fill="#F39200" points="258.431,89.262 262.394,89.262 265.823,73.083 260.252,73.083 259.105,78.521 256.116,73.083 
					249.099,73.083 				"/>
				<polygon fill="#F39200" points="287.39,89.262 288.494,83.948 274.93,83.948 276.098,78.365 285.89,78.365 286.801,74.117 
					277.008,74.117 277.233,73.083 271.072,73.083 267.644,89.262 				"/>
				<path fill="#F39200" d="M295.694,75.296c0,0.841,0.245,1.489,0.729,1.944c0.481,0.46,1.264,0.686,2.335,0.686h10.51
					c0.675,0,1.018,0.248,1.018,0.713c0,0.183-0.011,0.332-0.032,0.434l-0.793,3.697c-0.107,0.493-0.268,0.847-0.492,1.018
					c-0.215,0.182-0.568,0.289-1.04,0.289h-14.208l-1.103,5.186h16.885c1.704,0,2.968-0.385,3.772-1.136
					c0.814-0.76,1.392-1.929,1.735-3.503l1.532-7.276c0.076-0.396,0.118-0.76,0.118-1.098c0-0.841-0.246-1.5-0.728-1.977
					c-0.481-0.466-1.275-0.707-2.378-0.707h-10.661c-0.514,0-0.75-0.183-0.814-0.483h-6.042l-0.226,1.062
					C295.726,74.6,295.694,74.975,295.694,75.296z"/>
				<path fill="#F39200" d="M322.083,75.296c0,0.841,0.246,1.489,0.739,1.944c0.482,0.46,1.265,0.686,2.335,0.686h10.511
					c0.686,0,1.018,0.248,1.018,0.713c0,0.183-0.011,0.332-0.042,0.434l-0.782,3.697c-0.108,0.493-0.269,0.847-0.493,1.018
					c-0.226,0.182-0.579,0.289-1.04,0.289h-14.208l-1.103,5.186h16.885c1.703,0,2.957-0.385,3.781-1.136
					c0.815-0.76,1.382-1.929,1.725-3.503l1.532-7.276c0.076-0.396,0.118-0.76,0.118-1.098c0-0.841-0.246-1.5-0.729-1.977
					c-0.482-0.466-1.275-0.707-2.378-0.707h-10.661c-0.515,0-0.75-0.183-0.825-0.483h-6.032l-0.236,1.062
					C322.125,74.6,322.083,74.975,322.083,75.296z"/>
			</g>
		</g>
	</g>
</g>
</svg>
