<?xml version="1.0" standalone="no"?>
<!DOCTYPE svg PUBLIC "-//W3C//DTD SVG 20010904//EN"
 "http://www.w3.org/TR/2001/REC-SVG-20010904/DTD/svg10.dtd">
<svg version="1.0" xmlns="http://www.w3.org/2000/svg"
 width="475.000000pt" height="475.000000pt" viewBox="0 0 475.000000 475.000000"
 preserveAspectRatio="xMidYMid meet">
<metadata>
Created by potrace 1.11, written by Peter Selinger 2001-2013
</metadata>
<g transform="translate(0.000000,475.000000) scale(0.100000,-0.100000)"
fill="#000000" stroke="none">
<path d="M2425 3758 c-2 -7 -13 -60 -25 -118 -12 -58 -24 -113 -26 -122 -5
-17 -59 -18 -949 -18 -519 0 -946 -3 -949 -8 -2 -4 -34 -149 -70 -322 -86
-418 -222 -1063 -246 -1175 -11 -49 -45 -211 -76 -360 -31 -148 -59 -280 -62
-292 l-4 -23 946 0 c634 0 946 -3 946 -10 0 -6 -11 -62 -25 -126 -14 -64 -25
-120 -25 -125 0 -5 450 -9 1134 -9 l1134 0 11 47 c12 58 345 1652 466 2228 47
226 88 418 91 428 5 16 -53 17 -1131 17 -900 0 -1136 -3 -1140 -12z m-688
-639 c31 -11 98 -72 115 -104 8 -13 -1 -10 -25 12 -84 74 -167 67 -253 -21
-62 -64 -107 -154 -141 -284 -31 -120 -43 -379 -23 -513 53 -364 255 -569 414
-421 22 21 26 22 18 7 -13 -25 -60 -69 -89 -84 -35 -18 -506 -15 -542 3 -94
49 -180 239 -211 465 -6 44 -12 140 -13 215 -1 74 -5 132 -10 127 -4 -4 -14
-56 -23 -117 -15 -94 -15 -126 -5 -234 7 -69 15 -140 18 -157 5 -33 5 -33 -37
-33 -36 0 -48 6 -80 38 -122 122 -145 519 -43 728 38 79 64 94 156 94 l75 0
26 65 c46 114 98 183 161 211 38 17 469 20 512 3z m1667 -13 c35 -20 106 -101
106 -120 0 -4 -15 9 -34 28 -50 50 -112 71 -165 56 -128 -34 -226 -227 -267
-521 -14 -105 -15 -142 -5 -244 14 -156 42 -271 91 -371 94 -195 222 -245 344
-135 l29 26 -21 -32 c-33 -47 -78 -81 -124 -93 -25 -7 -123 -10 -263 -8 l-223
3 -43 30 c-79 57 -146 201 -184 396 -26 133 -31 391 -11 529 36 239 127 430
226 469 14 5 131 10 264 10 235 1 240 1 280 -23z m246 -278 c18 -13 40 -34 49
-48 16 -25 16 -25 -17 3 -86 70 -171 12 -230 -159 -24 -71 -27 -92 -26 -219 0
-127 2 -147 28 -220 56 -162 147 -224 224 -152 24 21 24 21 12 1 -29 -47 -58
-54 -223 -54 l-155 0 -35 39 c-37 41 -67 111 -88 206 -19 88 -17 324 4 405 24
92 66 170 106 197 31 21 45 23 176 23 131 0 145 -2 175 -22z m-1172 -413 l-3
-105 -403 0 -402 0 -10 26 c-14 36 -12 137 3 157 11 15 41 17 257 20 135 1
316 3 403 5 l158 2 -3 -105z"/>
<path d="M1118 2363 c7 -3 16 -2 19 1 4 3 -2 6 -13 5 -11 0 -14 -3 -6 -6z"/>
</g>
</svg>
